<?xml version="1.0" encoding="utf-8"?>
<!-- Generator: Adobe Illustrator 25.0.1, SVG Export Plug-In . SVG Version: 6.00 Build 0)  -->
<svg version="1.1" id="arrowCycle" xmlns="http://www.w3.org/2000/svg" xmlns:xlink="http://www.w3.org/1999/xlink" x="0px" y="0px"
	 viewBox="0 0 72 72" style="enable-background:new 0 0 72 72;" xml:space="preserve">
<style type="text/css">
	.st0{fill:none;stroke:#000000;stroke-miterlimit:10;}
</style>
<g>
	<g>
		<polyline class="st0" points="41.5,18.6 36,12 42.5,6.5 		"/>
		<path class="st0" d="M59.5,41c0.3-1.6,0.5-3.3,0.5-5c0-13.3-10.7-24-24-24"/>
	</g>
	<g>
		<polyline class="st0" points="7,44.9 15.1,47.8 18,39.8 		"/>
		<path class="st0" d="M29.1,13C19.2,16,12,25.2,12,36c0,4.3,1.1,8.3,3.1,11.8"/>
	</g>
	<g>
		<polyline class="st0" points="58.5,56.1 57,47.6 48.6,49.1 		"/>
		<path class="st0" d="M19.7,53.6c4.3,4,10,6.4,16.3,6.4c9,0,16.9-5,21-12.4"/>
	</g>
</g>
</svg>
