<?xml version="1.0" encoding="utf-8"?>
<!-- Generator: Adobe Illustrator 25.0.1, SVG Export Plug-In . SVG Version: 6.00 Build 0)  -->
<svg version="1.1" id="banknoteDollar" xmlns="http://www.w3.org/2000/svg" xmlns:xlink="http://www.w3.org/1999/xlink" x="0px"
	 y="0px" viewBox="0 0 72 72" style="enable-background:new 0 0 72 72;" xml:space="preserve">
<style type="text/css">
	.st0{fill:none;stroke:#000000;}
	.st1{fill:#161616;}
</style>
<g>
	<rect x="6.9" y="19.9" class="st0" width="62.1" height="27.2"/>
	<polyline class="st0" points="3.1,23.8 3.1,51 65.1,51 	"/>
	<path class="st0" d="M43.7,31.6c-0.1-1.7-1.3-3.1-5.5-3.1c-3.9,0-5.8,1.1-5.8,2.8c0,3.6,5.9,2.2,9.2,2.7c2.4,0.4,2.1,2.1,2.1,2.1
		c0,1.6-1.4,2.6-5.8,2.6c-5.3,0-5.5-1.8-5.6-3.3"/>
	<line class="st0" x1="38" y1="26.2" x2="38" y2="40.8"/>
	<path class="st1" d="M25,33.5c0,0.5,0.4,1,1,1c0.6,0,1-0.4,1-1c0-0.6-0.5-1-1-1C25.4,32.5,25,33,25,33.5z"/>
	<path class="st1" d="M49,33.5c0,0.5,0.4,1,1,1c0.6,0,1-0.4,1-1c0-0.6-0.5-1-1-1C49.4,32.5,49,33,49,33.5z"/>
</g>
</svg>
