<?xml version="1.0" encoding="utf-8"?>
<!-- Generator: Adobe Illustrator 25.0.1, SVG Export Plug-In . SVG Version: 6.00 Build 0)  -->
<svg version="1.1" id="bookOpen" xmlns="http://www.w3.org/2000/svg" xmlns:xlink="http://www.w3.org/1999/xlink" x="0px" y="0px"
	 viewBox="0 0 72 72" style="enable-background:new 0 0 72 72;" xml:space="preserve">
<style type="text/css">
	.st0{fill:none;stroke:#000000;stroke-miterlimit:10;}
</style>
<g>
	<polyline class="st0" points="66,15 66,57 36,57 	"/>
	<polyline class="st0" points="36,56 63,53 63,13 36,16 	"/>
	<line class="st0" x1="39.9" y1="26.1" x2="52.6" y2="24.8"/>
	<line class="st0" x1="39.9" y1="32.1" x2="59" y2="30"/>
	<line class="st0" x1="55.6" y1="36.4" x2="39.9" y2="38.1"/>
	<line class="st0" x1="39.9" y1="44.1" x2="59" y2="42"/>
	<polyline class="st0" points="5.9,15 5.9,57 36,57 	"/>
	<polyline class="st0" points="36,16 8.9,13 8.9,53 36,56 	"/>
	<line class="st0" x1="27" y1="25.5" x2="13" y2="24.1"/>
	<line class="st0" x1="13" y1="30" x2="32" y2="32.1"/>
	<line class="st0" x1="27" y1="37.5" x2="13" y2="36"/>
	<line class="st0" x1="32" y1="44.1" x2="13" y2="42"/>
	<line class="st0" x1="36" y1="16" x2="36" y2="56"/>
</g>
</svg>
