<?xml version="1.0" encoding="utf-8"?>
<!-- Generator: Adobe Illustrator 25.0.1, SVG Export Plug-In . SVG Version: 6.00 Build 0)  -->
<svg version="1.1" id="bus" xmlns="http://www.w3.org/2000/svg" xmlns:xlink="http://www.w3.org/1999/xlink" x="0px" y="0px"
	 viewBox="0 0 72 72" style="enable-background:new 0 0 72 72;" xml:space="preserve">
<style type="text/css">
	.st0{fill:none;stroke:#000000;stroke-miterlimit:10;}
</style>
<g>
	<path class="st0" d="M22.3,49c0,2.8-2.2,5-5,5c-2.7,0-5-2.2-5-5c0-2.8,2.2-5,5-5C20.1,44,22.3,46.3,22.3,49z"/>
	<path class="st0" d="M54.8,54c2.7,0,5-2.2,5-5c0-2.8-2.2-5-5-5c-2.7,0-5,2.2-5,5C49.9,51.8,52.1,54,54.8,54z"/>
	<line class="st0" x1="22.3" y1="48.8" x2="50" y2="48.8"/>
	<path class="st0" d="M59.8,48.8H66V21.4H16.5c-5.7,0-10.4,4.7-10.4,10.5v16.9h6.2"/>
	<line class="st0" x1="14.9" y1="21.6" x2="14.9" y2="37.5"/>
	<line class="st0" x1="6.7" y1="37.5" x2="65.8" y2="37.5"/>
	<line class="st0" x1="29.8" y1="21.6" x2="29.8" y2="37.6"/>
	<line class="st0" x1="44.8" y1="21.6" x2="44.8" y2="37.6"/>
	<line class="st0" x1="59.8" y1="21.6" x2="59.8" y2="37.6"/>
</g>
</svg>
