<?xml version="1.0" encoding="utf-8"?>
<!-- Generator: Adobe Illustrator 25.0.1, SVG Export Plug-In . SVG Version: 6.00 Build 0)  -->
<svg version="1.1" id="cake" xmlns="http://www.w3.org/2000/svg" xmlns:xlink="http://www.w3.org/1999/xlink" x="0px" y="0px"
	 viewBox="0 0 72 72" style="enable-background:new 0 0 72 72;" xml:space="preserve">
<style type="text/css">
	.st0{fill:none;stroke:#000000;stroke-miterlimit:10;}
</style>
<g>
	<path class="st0" d="M25.2,11.2l1.6,2.9c0.1,0.2,0.2,0.5,0.2,0.8c0,1-0.8,1.8-1.8,1.8c-1,0-1.8-0.8-1.8-1.8c0-0.3,0.1-0.5,0.2-0.8
		L25.2,11.2z"/>
	<path class="st0" d="M34.4,14.1c-0.1,0.2-0.2,0.5-0.2,0.8c0,1,0.8,1.8,1.8,1.8c1,0,1.8-0.8,1.8-1.8c0-0.3-0.1-0.5-0.2-0.8L36,11.2
		L34.4,14.1z"/>
	<path class="st0" d="M45.2,14.1c-0.1,0.2-0.2,0.5-0.2,0.8c0,1,0.8,1.8,1.8,1.8c1,0,1.8-0.8,1.8-1.8c0-0.3-0.1-0.5-0.2-0.8l-1.6-2.9
		L45.2,14.1z"/>
	<line class="st0" x1="57.6" y1="56.2" x2="57.6" y2="40"/>
	<line class="st0" x1="14.4" y1="40" x2="14.4" y2="56.2"/>
	<line class="st0" x1="9" y1="58.9" x2="63" y2="58.9"/>
	<line class="st0" x1="36" y1="18.4" x2="36" y2="23.8"/>
	<line class="st0" x1="46.8" y1="18.4" x2="46.8" y2="23.8"/>
	<line class="st0" x1="25.2" y1="18.4" x2="25.2" y2="23.8"/>
	<path class="st0" d="M14.6,26.6"/>
	<path class="st0" d="M14.6,26.5c-0.8,0-1.5,0.7-1.5,1.5v8.9c1.8,0,2.7,0.7,3.7,1.4c1,0.8,2,1.5,4,1.5c2,0,3-0.8,4-1.5
		c0.9-0.7,1.8-1.4,3.7-1.4c1.8,0,2.7,0.7,3.7,1.4c1,0.8,2,1.5,4,1.5c2,0,3-0.8,4-1.5c0.9-0.7,1.8-1.4,3.7-1.4c1.8,0,2.7,0.7,3.7,1.4
		c1,0.8,2,1.5,4,1.5c2,0,3-0.8,4-1.5c0.9-0.7,1.8-1.4,3.7-1.4V28c0-0.8-0.7-1.5-1.5-1.5H14.6"/>
</g>
</svg>
