<?xml version="1.0" encoding="utf-8"?>
<!-- Generator: Adobe Illustrator 25.0.1, SVG Export Plug-In . SVG Version: 6.00 Build 0)  -->
<svg version="1.1" id="clockTickmarks" xmlns="http://www.w3.org/2000/svg" xmlns:xlink="http://www.w3.org/1999/xlink" x="0px"
	 y="0px" viewBox="0 0 72 72" style="enable-background:new 0 0 72 72;" xml:space="preserve">
<style type="text/css">
	.st0{fill:none;stroke:#000000;stroke-miterlimit:10;}
</style>
<g>
	<path class="st0" d="M36,9c14.9,0,27,12.1,27,27S50.9,63,36,63S9,50.9,9,36S21.1,9,36,9z"/>
	<polyline class="st0" points="36,18 36,36 45,36 	"/>
	<line class="st0" x1="52.1" y1="19.9" x2="53" y2="19"/>
	<line class="st0" x1="19" y1="53" x2="19.9" y2="52.1"/>
	<line class="st0" x1="19.9" y1="19.9" x2="19" y2="19"/>
	<line class="st0" x1="53" y1="53" x2="52.1" y2="52.1"/>
	<line class="st0" x1="36" y1="60" x2="36" y2="58.8"/>
	<line class="st0" x1="36" y1="13.2" x2="36" y2="12"/>
	<line class="st0" x1="58.8" y1="36" x2="60" y2="36"/>
	<line class="st0" x1="12" y1="36" x2="13.2" y2="36"/>
</g>
</svg>
