<?xml version="1.0" encoding="utf-8"?>
<!-- Generator: Adobe Illustrator 25.0.1, SVG Export Plug-In . SVG Version: 6.00 Build 0)  -->
<svg version="1.1" id="ear" xmlns="http://www.w3.org/2000/svg" xmlns:xlink="http://www.w3.org/1999/xlink" x="0px" y="0px"
	 viewBox="0 0 72 72" style="enable-background:new 0 0 72 72;" xml:space="preserve">
<style type="text/css">
	.st0{fill:none;stroke:#000000;stroke-miterlimit:10;}
</style>
<g>
	<path class="st0" d="M36,36c-5,0-9-4-9-9s4-9,9-9s9,4,9,9"/>
	<path class="st0" d="M36,44.5c2.3,0,4.2-1.9,4.2-4.2S38.4,36,36,36"/>
	<path class="st0" d="M52.3,26.9c0-2.3-0.5-4.4-1.3-6.4c-0.8-2-2-3.7-3.5-5.2s-3.2-2.7-5.2-3.5c-2-0.8-4.1-1.3-6.4-1.3
		c-2.3,0-4.4,0.5-6.4,1.3c-2,0.8-3.7,2-5.2,3.5c-1.5,1.5-2.7,3.2-3.5,5.2c-0.8,2-1.3,4.1-1.3,6.4s0.5,4.8,1.3,6.4
		c3.1,6,7.8,10,7.8,17.3c0,5.8,0,3.6,0,3.6c0,4,3.3,7.3,7.3,7.3s7.3-3.3,7.3-7.3"/>
</g>
</svg>
