<?xml version="1.0" encoding="utf-8"?>
<!-- Generator: Adobe Illustrator 25.0.1, SVG Export Plug-In . SVG Version: 6.00 Build 0)  -->
<svg version="1.1" id="earthAmericas" xmlns="http://www.w3.org/2000/svg" xmlns:xlink="http://www.w3.org/1999/xlink" x="0px"
	 y="0px" viewBox="0 0 72 72" style="enable-background:new 0 0 72 72;" xml:space="preserve">
<style type="text/css">
	.st0{clip-path:url(#SVGID_2_);fill:none;stroke:#000000;stroke-miterlimit:10;}
</style>
<g>
	<g>
		<defs>
			<path id="SVGID_1_" d="M9,36c0,14.9,12.1,27,27,27c14.9,0,27-12.1,27-27C63,21.1,50.9,9,36,9C21.1,9,9,21.1,9,36z"/>
		</defs>
		<clipPath id="SVGID_2_">
			<use xlink:href="#SVGID_1_"  style="overflow:visible;"/>
		</clipPath>
		<polygon class="st0" points="37.2,23.9 33.6,20.2 35.6,18.2 37.2,18.2 		"/>
		<polygon class="st0" points="26.5,13.6 36.4,13.6 42.4,19.5 40.3,21.7 44.7,26.1 41.7,29.1 39.9,29.1 39.9,31.3 37.8,33.4 
			37.8,35.2 36.3,35.2 36.3,33.6 34.2,33.6 34.2,36.5 35.7,38 41,38 48.2,45.2 48.2,49.1 40.3,56.9 40.3,62.6 38.6,62.6 36.9,62 
			36.9,55.3 37.8,54.3 37.8,49.5 35.6,47.3 35.6,43.1 38.2,41.1 34.4,41.1 26.8,33.5 26.8,26.9 24.3,24.4 22.1,26.6 20.5,24.9 
			21.8,23.6 18.8,20.7 18.9,18 21.2,15.7 23.3,15.7 25.3,13.5 		"/>
		<path class="st0" d="M77.7,15.3"/>
		<polygon class="st0" points="74.3,15.3 64,15.3 63.3,20.1 61.5,22.3 55.3,28.6 57.6,31.3 60.4,28.2 65.9,28.2 68.7,31.5 
			57.6,31.5 54.4,35 54.4,40.6 56.3,42.5 59.1,42.5 62.3,45.9 62.3,57 67.6,51.7 69.7,47.8 69.7,43.2 72.3,40.7 67.6,36.1 
			69.5,34.3 73.3,38.1 76.7,34.7 78,34.7 78,43.2 83.5,37.8 86.4,40.6 92.5,40.6 92.5,33.4 95.3,36.2 95.3,28.5 99.5,24.2 
			97.4,22.1 98.9,20.6 102.8,24.5 108.8,18.5 108.8,16.8 101.2,16.8 99.1,14.7 94.6,14.7 92.5,12.5 80.4,12.5 76,16.9 		"/>
		<path class="st0" d="M76,16.9"/>
		<polygon class="st0" points="103.5,27.9 97.9,33.5 100.7,33.5 103.5,30.8 		"/>
		<rect x="86.4" y="43" class="st0" width="6.1" height="2.1"/>
		<rect x="94.6" y="45.1" class="st0" width="3.1" height="2.1"/>
		<polygon class="st0" points="89.6,48.8 85.3,53.1 85.3,57 92.1,57 94.8,59.7 97.7,56.9 97.7,51.9 94.6,48.8 		"/>
		<polygon class="st0" points="98.5,58.7 99.9,60.1 101.9,58.1 101.9,55.4 		"/>
		<use xlink:href="#SVGID_1_"  style="overflow:visible;fill:none;stroke:#000000;stroke-miterlimit:10;"/>
	</g>
</g>
</svg>
