<?xml version="1.0" encoding="utf-8"?>
<!-- Generator: Adobe Illustrator 25.0.1, SVG Export Plug-In . SVG Version: 6.00 Build 0)  -->
<svg version="1.1" id="gaugeTickmarks" xmlns="http://www.w3.org/2000/svg" xmlns:xlink="http://www.w3.org/1999/xlink" x="0px"
	 y="0px" viewBox="0 0 72 72" style="enable-background:new 0 0 72 72;" xml:space="preserve">
<style type="text/css">
	.st0{fill:none;stroke:#000000;stroke-miterlimit:10;}
	.st1{fill:none;stroke:#000000;}
</style>
<g>
	<line class="st0" x1="42.4" y1="29.6" x2="57.7" y2="14.1"/>
	<circle class="st0" cx="36" cy="36.1" r="9"/>
	<path class="st1" d="M57.7,52.2c3.3-4.5,5.2-10.1,5.2-16c0-6.3-2.2-12-5.8-16.6"/>
	<path class="st1" d="M52.6,15.1C48,11.5,42.3,9.4,36.1,9.4c-14.9,0-27,12.1-27,26.9c0,5.9,2,11.5,5.3,16"/>
	<line class="st0" x1="12" y1="36" x2="9" y2="36"/>
	<line class="st0" x1="63" y1="36" x2="60" y2="36"/>
	<line class="st0" x1="16.9" y1="16.9" x2="19" y2="19"/>
	<line class="st0" x1="14.1" y1="51.8" x2="16.5" y2="50"/>
	<line class="st0" x1="36" y1="12" x2="36" y2="9"/>
	<line class="st0" x1="55.5" y1="50" x2="58" y2="51.7"/>
</g>
</svg>
