<?xml version="1.0" encoding="utf-8"?>
<!-- Generator: Adobe Illustrator 25.0.1, SVG Export Plug-In . SVG Version: 6.00 Build 0)  -->
<svg version="1.1" id="gift" xmlns="http://www.w3.org/2000/svg" xmlns:xlink="http://www.w3.org/1999/xlink" x="0px" y="0px"
	 viewBox="0 0 72 72" style="enable-background:new 0 0 72 72;" xml:space="preserve">
<style type="text/css">
	.st0{fill:none;stroke:#000000;stroke-miterlimit:10;}
</style>
<g>
	<line class="st0" x1="26.9" y1="22.7" x2="15.2" y2="17.8"/>
	<line class="st0" x1="45.1" y1="22.7" x2="56.8" y2="17.8"/>
	<path class="st0" d="M36.7,22.7l5.4,0c3.4,0,6.1-2.7,6.1-6.1c0-3.4-2.7-6.1-6.1-6.1c-3.4,0-6.1,2.7-6.1,6.1l0,5.4"/>
	<path class="st0" d="M36,22.7l0-6.1c0-3.4-2.7-6.1-6.1-6.1c-3.4,0-6.1,2.7-6.1,6.1c0,3.4,2.7,6.1,6.1,6.1l5.4,0"/>
	<line class="st0" x1="39.9" y1="60" x2="39.9" y2="22.7"/>
	<line class="st0" x1="32.1" y1="60" x2="32.1" y2="22.7"/>
	<rect x="12" y="22.7" class="st0" width="48" height="37.3"/>
</g>
</svg>
