<?xml version="1.0" encoding="utf-8"?>
<!-- Generator: Adobe Illustrator 25.0.1, SVG Export Plug-In . SVG Version: 6.00 Build 0)  -->
<svg version="1.1" id="globe" xmlns="http://www.w3.org/2000/svg" xmlns:xlink="http://www.w3.org/1999/xlink" x="0px" y="0px"
	 viewBox="0 0 72 72" style="enable-background:new 0 0 72 72;" xml:space="preserve">
<style type="text/css">
	.st0{fill:none;stroke:#000000;stroke-miterlimit:10;}
</style>
<g>
	<path class="st0" d="M53.7,37.2c-2.5,9-11.8,14.2-20.8,11.7S18.6,37.1,21.2,28.1c1.8-6.4,7-10.9,13.1-12.1c2.5-0.5,5.1-0.4,7.7,0.3
		C51,18.9,56.2,28.2,53.7,37.2z"/>
	<line class="st0" x1="37.4" y1="56.1" x2="37.4" y2="63"/>
	<line class="st0" x1="29.8" y1="63" x2="45.1" y2="63"/>
	<path class="st0" d="M37.9,9c-6.2-0.1-12.4,2.2-17.1,6.9c-9.1,9.1-9.1,24,0,33.1s24,9.1,33.1,0c1.6-1.6,3-3.4,4-5.3"/>
	<line class="st0" x1="29.2" y1="17.8" x2="26" y2="12"/>
</g>
</svg>
