<?xml version="1.0" encoding="utf-8"?>
<!-- Generator: Adobe Illustrator 25.0.1, SVG Export Plug-In . SVG Version: 6.00 Build 0)  -->
<svg version="1.1" id="hammer" xmlns="http://www.w3.org/2000/svg" xmlns:xlink="http://www.w3.org/1999/xlink" x="0px" y="0px"
	 viewBox="0 0 72 72" style="enable-background:new 0 0 72 72;" xml:space="preserve">
<style type="text/css">
	.st0{fill:none;stroke:#221F1F;stroke-miterlimit:10;}
</style>
<g>
	<polyline class="st0" points="42.9,30.4 13.2,60 9,55.8 38.7,26.2 	"/>
	<path class="st0" d="M46.9,14.4l-2.2-2.2l-0.5-0.5c-3.2-3.2-7.9-4-11.9-2.5l7.3,7.3l0.4,0.4l-1.6,1.6c-1.2,1.2-1.2,3.1,0,4.2
		l8.3,8.3c1.2,1.2,3.1,1.2,4.2,0l6.3-6.3L46.9,14.4z"/>
	<polyline class="st0" points="52.4,29.8 57,34.5 60.3,31.1 55.7,26.5 	"/>
	<line class="st0" x1="63.4" y1="28.1" x2="54" y2="37.5"/>
	<rect x="56.3" y="27.8" transform="matrix(0.7071 -0.7071 0.7071 0.7071 -3.3365 48.0303)" class="st0" width="0" height="0.5"/>
</g>
</svg>
