<?xml version="1.0" encoding="utf-8"?>
<!-- Generator: Adobe Illustrator 25.0.1, SVG Export Plug-In . SVG Version: 6.00 Build 0)  -->
<svg version="1.1" id="hand" xmlns="http://www.w3.org/2000/svg" xmlns:xlink="http://www.w3.org/1999/xlink" x="0px" y="0px"
	 viewBox="0 0 72 72" style="enable-background:new 0 0 72 72;" xml:space="preserve">
<style type="text/css">
	.st0{fill:none;stroke:#000000;stroke-miterlimit:10;}
</style>
<g>
	<path class="st0" d="M18,22.2c0-2,1.6-3.6,3.6-3.6s3.6,1.6,3.6,3.6"/>
	<path class="st0" d="M32.4,15c0-2-1.6-3.6-3.6-3.6S25.2,13,25.2,15"/>
	<path class="st0" d="M39.6,9.6C39.6,7.6,38,6,36,6s-3.6,1.6-3.6,3.6"/>
	<path class="st0" d="M46.8,15c0-2-1.6-3.6-3.6-3.6S39.6,13,39.6,15"/>
	<path class="st0" d="M54,33c0-2-1.6-3.6-3.6-3.6c-2,0-3.6,1.6-3.6,3.6"/>
	<path class="st0" d="M18,49.2c0,5,2,9.5,5.3,12.7"/>
	<path class="st0" d="M48.7,62C52,58.7,54,54.2,54,49.2"/>
	<line class="st0" x1="18" y1="22.2" x2="18" y2="49.2"/>
	<line class="st0" x1="25.2" y1="15" x2="25.2" y2="40.2"/>
	<line class="st0" x1="32.4" y1="9.6" x2="32.4" y2="35.9"/>
	<line class="st0" x1="39.6" y1="9.6" x2="39.6" y2="36"/>
	<path class="st0" d="M39.6,51c0-4,3.2-7.2,7.2-7.2V15"/>
	<line class="st0" x1="54" y1="33" x2="54" y2="49.2"/>
</g>
</svg>
