<?xml version="1.0" encoding="utf-8"?>
<!-- Generator: Adobe Illustrator 25.0.1, SVG Export Plug-In . SVG Version: 6.00 Build 0)  -->
<svg version="1.1" id="ip-sectorConsumerdefensive" xmlns="http://www.w3.org/2000/svg" xmlns:xlink="http://www.w3.org/1999/xlink"
	 x="0px" y="0px" viewBox="0 0 72 72" style="enable-background:new 0 0 72 72;" xml:space="preserve">
<style type="text/css">
	.st0{fill:none;stroke:#000000;stroke-miterlimit:10;}
</style>
<g>
	<path class="st0" d="M16.7,43.9h-2.1c0-1.8,0.1-11,10.7-12.3c0.1-0.5,2.8-10.8,13.8-10.8c8.9,0,13.5,6.9,14,12
		c0.7,0.3,3.2,1.7,3.2,5.5v5.6H53"/>
	<line class="st0" x1="29.3" y1="43.9" x2="40.3" y2="43.9"/>
	<path class="st0" d="M22.8,48.3"/>
	<path class="st0" d="M37,31v-6.9c-4.1,0.3-7.1,3.4-7.7,6.9H37z"/>
	<path class="st0" d="M39.7,23.9v7H49c-0.7-4.2-4.6-7.1-8.5-7.1C40.2,23.9,39.9,23.9,39.7,23.9z"/>
	<rect x="12" y="12" class="st0" width="48" height="48"/>
	<circle class="st0" cx="22.8" cy="43.8" r="4"/>
	<circle class="st0" cx="46.7" cy="43.8" r="4"/>
</g>
</svg>
