<?xml version="1.0" encoding="utf-8"?>
<!-- Generator: Adobe Illustrator 25.0.1, SVG Export Plug-In . SVG Version: 6.00 Build 0)  -->
<svg version="1.1" id="ip-sectorBasicmaterials" xmlns="http://www.w3.org/2000/svg" xmlns:xlink="http://www.w3.org/1999/xlink"
	 x="0px" y="0px" viewBox="0 0 72 72" style="enable-background:new 0 0 72 72;" xml:space="preserve">
<style type="text/css">
	.st0{fill:none;stroke:#000000;stroke-miterlimit:10;}
</style>
<g>
	<path class="st0" d="M15.2,49.8l1-6.5c0-0.8,0.6-1.4,1.3-1.4h7.9c0.8,0,1.3,0.6,1.3,1.4l1,6.5"/>
	<path class="st0" d="M34.9,38.9l-1-6.6c0-0.8-0.6-1.4-1.3-1.4h-7.9c-0.7,0-1.4,0.6-1.4,1.4l-1,6.6"/>
	<path class="st0" d="M42.2,27.8l-1-6.5c0-0.8-0.6-1.4-1.3-1.4h-7.9c-0.7,0-1.3,0.7-1.3,1.4l-1,6.5"/>
	<path class="st0" d="M42.2,49.8l-1-6.5c0-0.8-0.6-1.4-1.3-1.4h-7.9c-0.7,0-1.3,0.6-1.3,1.4l-1,6.5"/>
	<path class="st0" d="M49.4,38.9l-1-6.6c0-0.8-0.6-1.4-1.3-1.4h-7.9c-0.8,0-1.3,0.6-1.3,1.4l-1,6.6"/>
	<path class="st0" d="M56.6,49.8l-1-6.5c0-0.8-0.6-1.4-1.3-1.4h-7.9c-0.8,0-1.4,0.6-1.4,1.4l-1,6.5"/>
	<rect x="12" y="12" class="st0" width="48" height="48"/>
</g>
</svg>
