<?xml version="1.0" encoding="utf-8"?>
<!-- Generator: Adobe Illustrator 25.0.1, SVG Export Plug-In . SVG Version: 6.00 Build 0)  -->
<svg version="1.1" id="ip-sustainability" xmlns="http://www.w3.org/2000/svg" xmlns:xlink="http://www.w3.org/1999/xlink" x="0px"
	 y="0px" viewBox="0 0 72 72" style="enable-background:new 0 0 72 72;" xml:space="preserve">
<style type="text/css">
	.st0{fill:none;stroke:#000000;stroke-miterlimit:10;}
</style>
<g>
	<path class="st0" d="M36,15.1c6.1,0,11,9.5,11,21.1c0,11.7-4.9,21.1-11,21.1c-6.1,0-11-9.5-11-21.1C25,24.5,29.9,15.1,36,15.1z"/>
	<line class="st0" x1="57.1" y1="36.2" x2="14.8" y2="36.2"/>
	<path class="st0" d="M19.5,22.7c4.7,3,10.4,4.9,16.6,4.9c6.2,0,11.7-1.8,16.4-4.8"/>
	<path class="st0" d="M52.4,49.5c-4.7-3-10.4-4.9-16.6-4.9c-6.2,0-11.7,1.8-16.4,4.8"/>
	<line class="st0" x1="36" y1="15.1" x2="36" y2="57.2"/>
	<path class="st0" d="M14.9,36.1c0,11.7,9.5,21.1,21.1,21.1c11.7,0,21.1-9.5,21.1-21.1C57.2,24.5,47.7,15,36,15
		C24.4,15,14.9,24.5,14.9,36.1z"/>
	<path class="st0" d="M57.8,52.1C61.1,47.6,63,42,63,36C63,21.2,50.9,9.1,36.1,9.1C21.2,9.1,9,21.2,9,36c0,5.9,2,11.5,5.3,16.1"/>
</g>
</svg>
