<?xml version="1.0" encoding="utf-8"?>
<!-- Generator: Adobe Illustrator 25.0.1, SVG Export Plug-In . SVG Version: 6.00 Build 0)  -->
<svg version="1.1" id="ip-sectorTechnology" xmlns="http://www.w3.org/2000/svg" xmlns:xlink="http://www.w3.org/1999/xlink"
	 x="0px" y="0px" viewBox="0 0 72 72" style="enable-background:new 0 0 72 72;" xml:space="preserve">
<style type="text/css">
	.st0{fill:none;stroke:#000000;stroke-miterlimit:10;}
</style>
<g>
	<path d="M27.2,42c0.2,0.2,0.3,0.4,0.3,0.7s-0.1,0.5-0.3,0.7c-0.2,0.2-0.4,0.3-0.7,0.3c-0.3,0-0.5-0.1-0.7-0.3
		c-0.2-0.2-0.3-0.4-0.3-0.7s0.1-0.5,0.3-0.7c0.2-0.2,0.4-0.3,0.7-0.3C26.8,41.7,27,41.8,27.2,42z"/>
	<path d="M27.2,46.2c0.2,0.2,0.3,0.4,0.3,0.7s-0.1,0.5-0.3,0.7c-0.2,0.2-0.4,0.3-0.7,0.3c-0.3,0-0.5-0.1-0.7-0.3
		c-0.2-0.2-0.3-0.4-0.3-0.7s0.1-0.5,0.3-0.7c0.2-0.2,0.4-0.3,0.7-0.3C26.8,45.9,27,46,27.2,46.2z"/>
	<path d="M31.9,42c0.2,0.2,0.3,0.4,0.3,0.7s-0.1,0.5-0.3,0.7c-0.2,0.2-0.4,0.3-0.7,0.3c-0.3,0-0.5-0.1-0.7-0.3
		c-0.2-0.2-0.3-0.4-0.3-0.7s0.1-0.5,0.3-0.7c0.2-0.2,0.4-0.3,0.7-0.3C31.5,41.7,31.7,41.8,31.9,42z"/>
	<path d="M31.9,46.2c0.2,0.2,0.3,0.4,0.3,0.7s-0.1,0.5-0.3,0.7c-0.2,0.2-0.4,0.3-0.7,0.3c-0.3,0-0.5-0.1-0.7-0.3
		c-0.2-0.2-0.3-0.4-0.3-0.7s0.1-0.5,0.3-0.7c0.2-0.2,0.4-0.3,0.7-0.3C31.5,45.9,31.7,46,31.9,46.2z"/>
	<path d="M36.7,42c0.2,0.2,0.3,0.4,0.3,0.7s-0.1,0.5-0.3,0.7c-0.2,0.2-0.4,0.3-0.7,0.3s-0.5-0.1-0.7-0.3C35.1,43.2,35,43,35,42.7
		s0.1-0.5,0.3-0.7c0.2-0.2,0.4-0.3,0.7-0.3S36.5,41.8,36.7,42z"/>
	<path d="M36.7,46.2c0.2,0.2,0.3,0.4,0.3,0.7s-0.1,0.5-0.3,0.7c-0.2,0.2-0.4,0.3-0.7,0.3s-0.5-0.1-0.7-0.3c-0.2-0.2-0.3-0.4-0.3-0.7
		s0.1-0.5,0.3-0.7c0.2-0.2,0.4-0.3,0.7-0.3S36.5,46,36.7,46.2z"/>
	<path d="M41.5,42c0.2,0.2,0.3,0.4,0.3,0.7s-0.1,0.5-0.3,0.7c-0.2,0.2-0.4,0.3-0.7,0.3c-0.3,0-0.5-0.1-0.7-0.3
		c-0.2-0.2-0.3-0.4-0.3-0.7s0.1-0.5,0.3-0.7c0.2-0.2,0.4-0.3,0.7-0.3C41,41.7,41.3,41.8,41.5,42z"/>
	<path d="M41.5,46.2c0.2,0.2,0.3,0.4,0.3,0.7s-0.1,0.5-0.3,0.7c-0.2,0.2-0.4,0.3-0.7,0.3c-0.3,0-0.5-0.1-0.7-0.3
		c-0.2-0.2-0.3-0.4-0.3-0.7s0.1-0.5,0.3-0.7c0.2-0.2,0.4-0.3,0.7-0.3C41,45.9,41.3,46,41.5,46.2z"/>
	<path d="M46.2,42c0.2,0.2,0.3,0.4,0.3,0.7s-0.1,0.5-0.3,0.7c-0.2,0.2-0.4,0.3-0.7,0.3c-0.3,0-0.5-0.1-0.7-0.3
		c-0.2-0.2-0.3-0.4-0.3-0.7s0.1-0.5,0.3-0.7c0.2-0.2,0.4-0.3,0.7-0.3C45.8,41.7,46,41.8,46.2,42z"/>
	<path d="M46.2,46.2c0.2,0.2,0.3,0.4,0.3,0.7s-0.1,0.5-0.3,0.7c-0.2,0.2-0.4,0.3-0.7,0.3c-0.3,0-0.5-0.1-0.7-0.3
		c-0.2-0.2-0.3-0.4-0.3-0.7s0.1-0.5,0.3-0.7c0.2-0.2,0.4-0.3,0.7-0.3C45.8,45.9,46,46,46.2,46.2z"/>
	<path class="st0" d="M52.6,44c0-0.7-0.2-1.3-0.7-1.8c-0.5-0.5-1.1-0.7-1.8-0.7h-0.7V19.6c0-0.7-0.2-1.3-0.7-1.8
		c-0.5-0.5-1.1-0.7-1.8-0.7H25c-0.7,0-1.3,0.2-1.8,0.7c-0.5,0.5-0.7,1.1-0.7,1.8v21.8h-0.7c-0.7,0-1.3,0.2-1.8,0.7s-0.7,1.1-0.7,1.8
		v7.9c0,0.7,0.2,1.3,0.7,1.8s1.1,0.7,1.8,0.7h28.4c0.7,0,1.3-0.2,1.8-0.7c0.5-0.5,0.7-1.1,0.7-1.8V44z"/>
	<path class="st0" d="M44.7,36.8c-0.4,0.4-0.8,0.6-1.3,0.6H28.6c-0.5,0-0.9-0.2-1.3-0.6c-0.4-0.4-0.5-0.8-0.5-1.3V23.2
		c0-0.5,0.2-1,0.5-1.3c0.4-0.4,0.8-0.6,1.3-0.6h14.8c0.5,0,1,0.2,1.3,0.6c0.4,0.4,0.6,0.8,0.6,1.3v12.3C45.3,36,45.1,36.4,44.7,36.8
		z"/>
	<rect x="12" y="12" class="st0" width="48" height="48"/>
</g>
</svg>
