<?xml version="1.0" encoding="utf-8"?>
<!-- Generator: Adobe Illustrator 25.0.1, SVG Export Plug-In . SVG Version: 6.00 Build 0)  -->
<svg version="1.1" id="personLectern.ai" xmlns="http://www.w3.org/2000/svg" xmlns:xlink="http://www.w3.org/1999/xlink" x="0px"
	 y="0px" viewBox="0 0 72 72" style="enable-background:new 0 0 72 72;" xml:space="preserve">
<style type="text/css">
	.st0{fill-rule:evenodd;clip-rule:evenodd;fill:none;stroke:#000000;stroke-miterlimit:10;}
</style>
<g>
	<circle class="st0" cx="36" cy="11.9" r="5.9"/>
	<path class="st0" d="M46.4,33v-6.8c0-2.5-2.1-4.6-4.6-4.6H30.2c-2.5,0-4.6,2.1-4.6,4.6V33"/>
	<path class="st0" d="M37.7,30.6c0-0.9-0.7-1.7-1.7-1.7c-0.9,0-1.7,0.7-1.7,1.7c0,0.9,0.7,1.7,1.7,1.7
		C36.9,32.3,37.7,31.5,37.7,30.6z"/>
	<line class="st0" x1="36" y1="36.1" x2="36" y2="32.3"/>
	<polyline class="st0" points="47.8,43.1 51.4,36.1 50.5,36.1 21.5,36.1 20.6,36.1 24.4,43.3 	"/>
	<polyline class="st0" points="42.7,66 42.7,39.7 29.3,39.7 29.3,66 	"/>
</g>
</svg>
