<?xml version="1.0" encoding="utf-8"?>
<!-- Generator: Adobe Illustrator 25.0.1, SVG Export Plug-In . SVG Version: 6.00 Build 0)  -->
<svg version="1.1" id="personPresentationGroup" xmlns="http://www.w3.org/2000/svg" xmlns:xlink="http://www.w3.org/1999/xlink"
	 x="0px" y="0px" viewBox="0 0 72 72" style="enable-background:new 0 0 72 72;" xml:space="preserve">
<style type="text/css">
	.st0{fill-rule:evenodd;clip-rule:evenodd;fill:none;stroke:#000000;stroke-miterlimit:10;}
</style>
<g>
	<ellipse class="st0" cx="16.6" cy="45.9" rx="4.3" ry="4.3"/>
	<path class="st0" d="M24.7,60.4v-4.6c0-1.9-1.5-3.4-3.5-3.4H12c-1.9,0-3.5,1.5-3.5,3.4v4.6"/>
	<polyline class="st0" points="60,39 60,12 12,12 12,39 	"/>
	<ellipse class="st0" cx="35.8" cy="45.9" rx="4.3" ry="4.3"/>
	<path class="st0" d="M43.8,60.4v-4.6c0-1.9-1.5-3.4-3.5-3.4h-9.2c-1.9,0-3.5,1.5-3.5,3.4v4.6"/>
	<ellipse class="st0" cx="54.9" cy="45.9" rx="4.3" ry="4.3"/>
	<path class="st0" d="M63,60.4v-4.6c0-1.9-1.5-3.4-3.5-3.4h-9.2c-1.9,0-3.5,1.5-3.5,3.4v4.6"/>
</g>
</svg>
