<?xml version="1.0" encoding="utf-8"?>
<!-- Generator: Adobe Illustrator 25.0.1, SVG Export Plug-In . SVG Version: 6.00 Build 0)  -->
<svg version="1.1" id="scale" xmlns="http://www.w3.org/2000/svg" xmlns:xlink="http://www.w3.org/1999/xlink" x="0px" y="0px"
	 viewBox="0 0 72 72" style="enable-background:new 0 0 72 72;" xml:space="preserve">
<style type="text/css">
	.st0{fill:none;stroke:#000000;stroke-miterlimit:10;}
</style>
<g>
	<line id="XMLID_545_" class="st0" x1="36.1" y1="16.9" x2="36.1" y2="59.7"/>
	<line id="XMLID_544_" class="st0" x1="51" y1="59.9" x2="21" y2="59.9"/>
	<line id="XMLID_539_" class="st0" x1="20.1" y1="21.4" x2="52.1" y2="12"/>
	<path id="XMLID_542_" class="st0" d="M59.4,27.3L59.4,27.3c0,4.1-3.3,7.5-7.5,7.5c-4.1,0-7.4-3.4-7.4-7.5L52,12.6L59.4,27.3z"/>
	<line id="XMLID_543_" class="st0" x1="44.5" y1="27.3" x2="59.4" y2="27.3"/>
	<path id="XMLID_540_" class="st0" d="M12.6,36.6L20,22l7.4,14.6c0,4.1-3.3,7.5-7.5,7.5C15.9,44.1,12.6,40.7,12.6,36.6z"/>
	<line id="XMLID_541_" class="st0" x1="12.6" y1="36.6" x2="27.5" y2="36.6"/>
</g>
</svg>
