<?xml version="1.0" encoding="utf-8"?>
<!-- Generator: Adobe Illustrator 25.0.1, SVG Export Plug-In . SVG Version: 6.00 Build 0)  -->
<svg version="1.1" id="strategyTortoise" xmlns="http://www.w3.org/2000/svg" xmlns:xlink="http://www.w3.org/1999/xlink" x="0px"
	 y="0px" viewBox="0 0 72 72" style="enable-background:new 0 0 72 72;" xml:space="preserve">
<style type="text/css">
	.st0{fill:#161616;}
	.st1{fill:none;stroke:#000000;stroke-miterlimit:10;}
</style>
<g>
	<path class="st0" d="M21.5,41.3c0,0.5,0.4,1,1,1c0.6,0,1-0.4,1-1c0-0.6-0.5-1-1-1C22,40.3,21.5,40.7,21.5,41.3z"/>
	<path class="st1" d="M15.8,40.5c0-3.7,3-6.7,6.7-6.7"/>
	<path class="st1" d="M36,40.5c0-3.7-3-6.7-6.7-6.7"/>
	<path class="st1" d="M63,47.3c0-14.9-12.1-27-27-27c-14.9,0-27,12.1-27,27"/>
	<line class="st1" x1="29.3" y1="33.8" x2="22.5" y2="33.8"/>
	<path class="st1" d="M9,47.3"/>
	<polyline class="st1" points="22.5,47.3 15.8,47.3 15.8,40.5 15.8,47.3 56.3,47.3 	"/>
	<line class="st1" x1="22.5" y1="47.3" x2="22.5" y2="54"/>
	<line class="st1" x1="9" y1="47.3" x2="9" y2="54"/>
	<line class="st1" x1="63" y1="47.3" x2="63" y2="54"/>
	<line class="st1" x1="49.5" y1="47.3" x2="49.5" y2="54"/>
</g>
</svg>
