<?xml version="1.0" encoding="utf-8"?>
<!-- Generator: Adobe Illustrator 25.0.1, SVG Export Plug-In . SVG Version: 6.00 Build 0)  -->
<svg version="1.1" id="target" xmlns="http://www.w3.org/2000/svg" xmlns:xlink="http://www.w3.org/1999/xlink" x="0px" y="0px"
	 viewBox="0 0 72 72" style="enable-background:new 0 0 72 72;" xml:space="preserve">
<style type="text/css">
	.st0{fill:none;stroke:#000000;stroke-miterlimit:10;}
</style>
<g>
	<line class="st0" x1="35.9" y1="35.9" x2="57" y2="57"/>
	<polyline class="st0" points="63.7,57 57,57 57,63.7 	"/>
	<path class="st0" d="M42.4,37.6c0.1-0.6,0.2-1.1,0.2-1.7c0-3.7-3-6.7-6.7-6.7c-3.7,0-6.7,3-6.7,6.7c0,3.7,3,6.7,6.7,6.7
		c0.6,0,1.2-0.1,1.7-0.2"/>
	<path class="st0" d="M50.2,45.4c1.8-2.7,2.9-6,2.9-9.5c0-9.5-7.7-17.2-17.2-17.2s-17.2,7.7-17.2,17.2s7.7,17.2,17.2,17.2
		c3.5,0,6.8-1.1,9.5-2.9"/>
	<path class="st0" d="M57.2,52.5c3.6-4.6,5.7-10.3,5.7-16.5c0-14.9-12.1-27-27-27s-27,12.1-27,27s12.1,27,27,27
		c6.2,0,12-2.1,16.5-5.7"/>
	<path class="st0" d="M57,57"/>
</g>
</svg>
