<?xml version="1.0" encoding="utf-8"?>
<!-- Generator: Adobe Illustrator 25.0.1, SVG Export Plug-In . SVG Version: 6.00 Build 0)  -->
<svg version="1.1" id="banknote" xmlns="http://www.w3.org/2000/svg" xmlns:xlink="http://www.w3.org/1999/xlink" x="0px" y="0px"
	 viewBox="0 0 72 72" style="enable-background:new 0 0 72 72;" xml:space="preserve">
<style type="text/css">
	.st0{fill:none;stroke:#000000;}
	.st1{fill:#161616;}
</style>
<g>
	<rect x="6.9" y="19.9" class="st0" width="62.1" height="27.2"/>
	<polyline class="st0" points="3.1,23.8 3.1,51 65.1,51 	"/>
	<ellipse class="st0" cx="37.8" cy="33.5" rx="6" ry="6.9"/>
	<g>
		<path class="st1" d="M25.6,34c-0.3,0-0.5-0.2-0.5-0.5c0-0.3,0.2-0.5,0.5-0.5c0.3,0,0.5,0.2,0.5,0.5C26.1,33.8,25.9,34,25.6,34z"/>
		<path d="M25.6,32.5c-0.6,0-1,0.5-1,1c0,0.5,0.4,1,1,1c0.6,0,1-0.4,1-1C26.6,33,26.2,32.5,25.6,32.5L25.6,32.5z"/>
	</g>
	<g>
		<path class="st1" d="M49.6,34c-0.3,0-0.5-0.2-0.5-0.5c0-0.3,0.2-0.5,0.5-0.5c0.3,0,0.5,0.2,0.5,0.5C50.1,33.8,49.9,34,49.6,34z"/>
		<path d="M49.6,32.5c-0.6,0-1,0.5-1,1c0,0.5,0.4,1,1,1c0.6,0,1-0.4,1-1C50.6,33,50.2,32.5,49.6,32.5L49.6,32.5z"/>
	</g>
</g>
</svg>
