<?xml version="1.0" encoding="utf-8"?>
<!-- Generator: Adobe Illustrator 25.0.1, SVG Export Plug-In . SVG Version: 6.00 Build 0)  -->
<svg version="1.1" id="cake" xmlns="http://www.w3.org/2000/svg" xmlns:xlink="http://www.w3.org/1999/xlink" x="0px" y="0px"
	 viewBox="0 0 72 72" style="enable-background:new 0 0 72 72;" xml:space="preserve">
<style type="text/css">
	.st0{fill:none;stroke:#000000;stroke-miterlimit:10;}
</style>
<g>
	<polyline class="st0" points="57.4,60 12,60 12,18.6 	"/>
	<line class="st0" x1="15" y1="25" x2="60" y2="25"/>
	<line class="st0" x1="44" y1="16" x2="30" y2="16"/>
	<polyline class="st0" points="24,16 15,16 15,57 60,57 60,16 50,16 	"/>
	<path class="st0" d="M27,16c0,2.2,0,4,0,4S27,18.2,27,16s0-4,0-4S27,13.8,27,16z"/>
	<path class="st0" d="M47,16c0,2.2,0,4,0,4S47,18.2,47,16s0-4,0-4S47,13.8,47,16z"/>
</g>
</svg>
