<?xml version="1.0" encoding="utf-8"?>
<!-- Generator: Adobe Illustrator 25.0.1, SVG Export Plug-In . SVG Version: 6.00 Build 0)  -->
<svg version="1.1" id="cart" xmlns="http://www.w3.org/2000/svg" xmlns:xlink="http://www.w3.org/1999/xlink" x="0px" y="0px"
	 viewBox="0 0 72 72" style="enable-background:new 0 0 72 72;" xml:space="preserve">
<style type="text/css">
	.st0{fill:none;stroke:#000000;stroke-miterlimit:10;}
</style>
<g>
	<polyline class="st0" points="21.7,19.6 63,19.5 54,40.4 26.7,40.4 19.2,12 12,12 	"/>
	<polyline class="st0" points="26.7,40.4 29.6,51 52.2,51 	"/>
	<path class="st0" d="M51.6,54.1c-1.6,0-3,1.3-3,2.9c0,1.6,1.3,2.9,3,2.9c1.6,0,3-1.3,3-2.9C54.6,55.4,53.2,54.1,51.6,54.1z"/>
	<path class="st0" d="M30,54.1c-1.6,0-3,1.3-3,2.9c0,1.6,1.3,2.9,3,2.9c1.6,0,3-1.3,3-2.9C33,55.4,31.6,54.1,30,54.1z"/>
	<path class="st0" d="M47.7,36.4"/>
	<path class="st0" d="M45,57"/>
</g>
</svg>
