<?xml version="1.0" encoding="utf-8"?>
<!-- Generator: Adobe Illustrator 25.0.1, SVG Export Plug-In . SVG Version: 6.00 Build 0)  -->
<svg version="1.1" id="clipboardChecklist" xmlns="http://www.w3.org/2000/svg" xmlns:xlink="http://www.w3.org/1999/xlink" x="0px"
	 y="0px" viewBox="0 0 72 72" style="enable-background:new 0 0 72 72;" xml:space="preserve">
<style type="text/css">
	.st0{fill:none;stroke:#000000;stroke-miterlimit:10;}
</style>
<g>
	<polyline class="st0" points="53.6,13.1 57.2,13.1 57.2,66 14.8,66 14.8,13.1 18.4,13.1 	"/>
	<polyline class="st0" points="18.4,16.6 18.4,58.9 53.6,58.9 53.6,16.6 	"/>
	<path class="st0" d="M43.1,9.5c0-1.9-1.6-3.5-3.5-3.5h-7.1c-1.9,0-3.5,1.6-3.5,3.5v1.2h-7.1v5.9h28.2v-5.9h-7.1V9.5z"/>
	<line class="st0" x1="31.2" y1="23.6" x2="49" y2="23.6"/>
	<polyline class="st0" points="21.3,23.8 23.6,26.2 27.2,21.1 	"/>
	<line class="st0" x1="31.2" y1="34.2" x2="49" y2="34.2"/>
	<polyline class="st0" points="21.3,34.4 23.6,36.8 27.2,31.7 	"/>
	<line class="st0" x1="31.2" y1="44.8" x2="49" y2="44.8"/>
	<polyline class="st0" points="21.3,45 23.6,47.4 27.2,42.3 	"/>
	<path class="st0" d="M50.1,13.1"/>
	<path class="st0" d="M21.9,13.1"/>
</g>
</svg>
