<?xml version="1.0" encoding="utf-8"?>
<!-- Generator: Adobe Illustrator 25.0.1, SVG Export Plug-In . SVG Version: 6.00 Build 0)  -->
<svg version="1.1" id="documentData" xmlns="http://www.w3.org/2000/svg" xmlns:xlink="http://www.w3.org/1999/xlink" x="0px"
	 y="0px" viewBox="0 0 72 72" style="enable-background:new 0 0 72 72;" xml:space="preserve">
<style type="text/css">
	.st0{fill:none;stroke:#000000;}
</style>
<g>
	<polygon class="st0" points="15,64 15,8 43,8 57,22 57,64 	"/>
	<polyline class="st0" points="43,8 43,22 57,22 	"/>
	<polyline class="st0" points="30.7,33.7 30.7,29 27.2,29 27.2,33.7 	"/>
	<polyline class="st0" points="37.7,33.7 37.7,25.5 34.3,25.5 34.2,33.7 	"/>
	<polyline class="st0" points="44.7,33.7 44.7,27.8 41.2,27.8 41.2,33.7 	"/>
	<polyline class="st0" points="22,24.9 22,36 50,36 	"/>
	<circle class="st0" cx="43.6" cy="50" r="7.6"/>
	<circle class="st0" cx="43.6" cy="50" r="2.8"/>
	<line class="st0" x1="43.6" y1="42.4" x2="43.6" y2="47.2"/>
	<line class="st0" x1="48.9" y1="55.3" x2="45.7" y2="52.1"/>
	<line class="st0" x1="22" y1="43" x2="32.5" y2="43"/>
	<line class="st0" x1="22" y1="50" x2="32.5" y2="50"/>
	<line class="st0" x1="22" y1="57" x2="32.5" y2="57"/>
</g>
</svg>
