<?xml version="1.0" encoding="utf-8"?>
<!-- Generator: Adobe Illustrator 25.0.1, SVG Export Plug-In . SVG Version: 6.00 Build 0)  -->
<svg version="1.1" id="documentEquity" xmlns="http://www.w3.org/2000/svg" xmlns:xlink="http://www.w3.org/1999/xlink" x="0px"
	 y="0px" viewBox="0 0 72 72" style="enable-background:new 0 0 72 72;" xml:space="preserve">
<style type="text/css">
	.st0{fill:none;stroke:#000000;}
	.st1{fill:none;stroke:#000000;stroke-miterlimit:10;}
</style>
<g>
	<polygon class="st0" points="15,64 15,8 43,8 57,22 57,64 	"/>
	<polyline class="st0" points="43,8 43,22 57,22 	"/>
	<line class="st0" x1="22" y1="43" x2="43" y2="43"/>
	<line class="st0" x1="22" y1="50" x2="50" y2="50"/>
	<line class="st0" x1="22" y1="57" x2="43" y2="57"/>
	<line class="st0" x1="22" y1="36" x2="50" y2="36"/>
	<path class="st0" d="M38.8,21.8"/>
	<polygon class="st1" points="22.7,29 22.7,15.1 25.5,15.1 25.5,18.7 28.3,18.7 28.3,15.1 31.1,15.1 31.1,18.7 33.9,18.7 33.9,15.1 
		36.6,15.1 36.6,29 	"/>
</g>
</svg>
