<?xml version="1.0" encoding="utf-8"?>
<!-- Generator: Adobe Illustrator 25.0.1, SVG Export Plug-In . SVG Version: 6.00 Build 0)  -->
<svg version="1.1" id="earthEMEA" xmlns="http://www.w3.org/2000/svg" xmlns:xlink="http://www.w3.org/1999/xlink" x="0px" y="0px"
	 viewBox="0 0 72 72" style="enable-background:new 0 0 72 72;" xml:space="preserve">
<style type="text/css">
	.st0{clip-path:url(#SVGID_2_);fill:none;stroke:#000000;stroke-miterlimit:10;}
</style>
<g>
	<defs>
		<path id="SVGID_1_" d="M9,36c0,14.9,12.1,27,27,27c14.9,0,27-12.1,27-27C63,21.1,50.9,9,36,9C21.1,9,9,21.1,9,36z"/>
	</defs>
	<clipPath id="SVGID_2_">
		<use xlink:href="#SVGID_1_"  style="overflow:visible;"/>
	</clipPath>
	<polygon class="st0" points="43,16.9 47.4,12.5 59.5,12.5 61.6,14.7 66.1,14.7 68.2,16.8 75.8,16.8 75.8,18.5 69.8,24.5 65.9,20.6 
		64.4,22.1 66.5,24.2 62.3,28.5 62.3,36.2 59.5,33.4 59.5,40.6 53.4,40.6 50.5,37.8 45,43.2 45,34.7 43.7,34.7 40.3,38.1 36.5,34.3 
		34.6,36.1 39.3,40.7 36.7,43.2 36.7,47.8 34.6,51.7 29.3,57 29.3,45.9 26.1,42.5 23.3,42.5 21.4,40.6 21.4,35 24.6,31.5 35.7,31.5 
		32.9,28.2 27.4,28.2 24.6,31.3 22.3,28.6 28.5,22.3 30.3,20.1 31,15.3 41.3,15.3 	"/>
	<polygon class="st0" points="70.5,27.9 64.9,33.5 67.7,33.5 70.5,30.8 	"/>
	<rect x="53.4" y="43" class="st0" width="6.1" height="2.1"/>
	<rect x="61.6" y="45.1" class="st0" width="3.1" height="2.1"/>
	<polygon class="st0" points="56.6,48.8 52.3,53.1 52.3,57 59.1,57 61.8,59.7 64.7,56.9 64.7,51.9 61.6,48.8 	"/>
	<polygon class="st0" points="65.5,58.7 66.9,60.1 68.9,58.1 68.9,55.4 	"/>
	<use xlink:href="#SVGID_1_"  style="overflow:visible;fill:none;stroke:#000000;stroke-miterlimit:10;"/>
</g>
</svg>
