<?xml version="1.0" encoding="utf-8"?>
<!-- Generator: Adobe Illustrator 25.0.1, SVG Export Plug-In . SVG Version: 6.00 Build 0)  -->
<svg version="1.1" id="earthEPAC" xmlns="http://www.w3.org/2000/svg" xmlns:xlink="http://www.w3.org/1999/xlink" x="0px" y="0px"
	 viewBox="0 0 72 72" style="enable-background:new 0 0 72 72;" xml:space="preserve">
<style type="text/css">
	.st0{clip-path:url(#SVGID_2_);fill:none;stroke:#000000;stroke-miterlimit:10;}
</style>
<g>
	<defs>
		<path id="SVGID_1_" d="M9,36c0,14.9,12.1,27,27,27c14.9,0,27-12.1,27-27C63,21.1,50.9,9,36,9C21.1,9,9,21.1,9,36z"/>
	</defs>
	<clipPath id="SVGID_2_">
		<use xlink:href="#SVGID_1_"  style="overflow:visible;"/>
	</clipPath>
	<polyline class="st0" points="16.5,13.5 40,13.5 42.1,15.5 54.1,15.5 	"/>
	<polyline class="st0" points="13,16.1 8.5,20.7 10.7,22.8 4.7,28.8 7,31.3 9.6,28.4 14.8,28.4 17.4,31.5 7,31.5 3.9,34.9 3.9,40.2 
		5.7,42 8.3,42 11.4,45.2 11.4,55.8 16.4,50.7 18.4,47 18.4,42.6 20.8,40.2 16.4,35.9 18.2,34.1 21.8,37.8 25.1,34.5 26.3,34.5 
		26.3,42.6 31.5,37.5 34.2,40.1 40,40.1 40,33.3 42.7,36 42.7,28.7 46.7,24.6 48.9,24.6 58.2,15.4 	"/>
	<line class="st0" x1="55.5" y1="17.6" x2="55.5" y2="19.2"/>
	<polygon class="st0" points="51.4,27.2 46.1,32.4 48.9,32.4 51.4,29.9 	"/>
	<rect x="34.2" y="42.4" class="st0" width="5.8" height="2"/>
	<rect x="42" y="44.4" class="st0" width="2.9" height="2"/>
	<polygon class="st0" points="35.4,48 31.3,52.1 31.3,55.8 37.8,55.8 40.4,58.3 43.1,55.6 43.1,50.9 40.2,48 	"/>
	<polygon class="st0" points="44.9,55.4 46.2,56.7 48.1,54.8 48.1,52.2 	"/>
	<use xlink:href="#SVGID_1_"  style="overflow:visible;fill:none;stroke:#000000;stroke-miterlimit:10;"/>
</g>
</svg>
