<?xml version="1.0" encoding="utf-8"?>
<!-- Generator: Adobe Illustrator 25.0.1, SVG Export Plug-In . SVG Version: 6.00 Build 0)  -->
<svg version="1.1" id="eye" xmlns="http://www.w3.org/2000/svg" xmlns:xlink="http://www.w3.org/1999/xlink" x="0px" y="0px"
	 viewBox="0 0 72 72" style="enable-background:new 0 0 72 72;" xml:space="preserve">
<style type="text/css">
	.st0{fill:none;stroke:#000000;stroke-miterlimit:10;}
</style>
<g>
	<path class="st0" d="M6,40.7C22.6,15,49.4,15,66,40.7"/>
	<path class="st0" d="M40.8,41.7c0-2.6-2.1-4.7-4.8-4.7c-2.6,0-4.8,2.1-4.8,4.7s2.1,4.7,4.8,4.7C38.6,46.4,40.8,44.3,40.8,41.7z"/>
	<path class="st0" d="M47.3,50.4c1.7-2.3,2.7-5.2,2.7-8.2c0-7.6-6.3-13.8-14-13.8c-7.8,0-14.1,6.2-14.1,13.8c0,3,1.1,5.9,2.7,8.2"/>
</g>
</svg>
