<?xml version="1.0" encoding="utf-8"?>
<!-- Generator: Adobe Illustrator 25.0.1, SVG Export Plug-In . SVG Version: 6.00 Build 0)  -->
<svg version="1.1" id="gear" xmlns="http://www.w3.org/2000/svg" xmlns:xlink="http://www.w3.org/1999/xlink" x="0px" y="0px"
	 viewBox="0 0 72 72" style="enable-background:new 0 0 72 72;" xml:space="preserve">
<style type="text/css">
	.st0{fill:none;stroke:#000000;stroke-miterlimit:10;}
</style>
<g>
	<path class="st0" d="M40.5,9l1.5,6.1c1.6,0.5,3.1,1.1,4.5,1.8l5.4-3.2l6.4,6.4L55,25.5c0.8,1.4,1.4,2.9,1.8,4.5l6.1,1.5v9L56.9,42
		c-0.5,1.6-1.1,3.1-1.8,4.5l3.2,5.4l-6.4,6.4L46.5,55c-1.4,0.8-2.9,1.4-4.5,1.8L40.5,63h-9L30,56.9c-1.6-0.5-3.1-1.1-4.5-1.8
		l-5.4,3.2l-6.4-6.4l3.2-5.4c-0.8-1.4-1.4-2.9-1.8-4.5L9,40.5v-9l6.1-1.5c0.5-1.6,1.1-3.1,1.8-4.5l-3.2-5.4l6.4-6.4l5.4,3.2
		c1.4-0.8,2.9-1.4,4.5-1.8L31.5,9L40.5,9L40.5,9z"/>
	<circle class="st0" cx="36" cy="36" r="12"/>
</g>
</svg>
