<?xml version="1.0" encoding="utf-8"?>
<!-- Generator: Adobe Illustrator 25.0.1, SVG Export Plug-In . SVG Version: 6.00 Build 0)  -->
<svg version="1.1" id="headset" xmlns="http://www.w3.org/2000/svg" xmlns:xlink="http://www.w3.org/1999/xlink" x="0px" y="0px"
	 viewBox="0 0 72 72" style="enable-background:new 0 0 72 72;" xml:space="preserve">
<style type="text/css">
	.st0{fill:none;stroke:#000000;stroke-width:0.9862;stroke-linecap:round;stroke-linejoin:round;stroke-miterlimit:10;}
</style>
<g>
	<path class="st0" d="M12,45.2V31.1v-1C12,18,23.3,8.8,36,8.8c12.7,0,24.1,9.5,24.1,21.6v0.8v10.5"/>
	<path class="st0" d="M33.1,58c-1.7,0-3,1.3-3,3c0,1.7,1.3,3,3,3c1.7,0,3-1.3,3-3C36.1,59.3,34.8,58,33.1,58z"/>
	<path class="st0" d="M12,45.5c1.1,9,8.8,15.9,18.1,15.9"/>
	<path class="st0" d="M18.8,30.6h-5.4c-0.8,0-1.4,0.5-1.4,1.1v2.1v9.4v2.1c0,0.6,0.6,1,1.4,1h5.4c0.7,0,1.4-0.5,1.4-1V31.7
		C20.1,31.1,19.5,30.6,18.8,30.6z"/>
	<path class="st0" d="M58.7,30.6h-5.4c-0.8,0-1.4,0.5-1.4,1.1v2.1v9.4v2.1c0,0.6,0.6,1,1.4,1h5.4c0.7,0,1.4-0.5,1.4-1V31.7
		C60.1,31.1,59.5,30.6,58.7,30.6z"/>
</g>
</svg>
