<?xml version="1.0" encoding="utf-8"?>
<!-- Generator: Adobe Illustrator 25.0.1, SVG Export Plug-In . SVG Version: 6.00 Build 0)  -->
<svg version="1.1" id="ip-medalist" xmlns="http://www.w3.org/2000/svg" xmlns:xlink="http://www.w3.org/1999/xlink" x="0px"
	 y="0px" viewBox="0 0 72 72" style="enable-background:new 0 0 72 72;" xml:space="preserve">
<style type="text/css">
	.st0{fill:none;stroke:#000000;stroke-miterlimit:10;}
</style>
<g>
	<path class="st0" d="M15.1,9.6h41.8v26.5c0,3.3-0.6,6.4-1.7,9.4L43.7,34.7l12-11.4l-15.9,4.7L36,12l-3.8,16.1l-15.9-4.7l12.1,11.4
		L16.9,45.7c-1.2-2.9-1.8-6.1-1.8-9.6V9.6z"/>
	<path class="st0" d="M39.8,41.4L55,45.9c-1,2.3-2.3,4.3-3.9,6.2c-1.7,1.9-3.6,3.6-5.9,5.2c-2.3,1.6-5.3,3.3-9.3,5.1
		c-3.9-1.8-7-3.5-9.3-5.1s-4.2-3.3-5.9-5.1c-1.6-1.9-2.9-3.9-3.9-6.2l15.2-4.6L36,57.5L39.8,41.4z"/>
</g>
</svg>
