<?xml version="1.0" encoding="utf-8"?>
<!-- Generator: Adobe Illustrator 25.0.1, SVG Export Plug-In . SVG Version: 6.00 Build 0)  -->
<svg version="1.1" id="ip-sectorFinancialservices" xmlns="http://www.w3.org/2000/svg" xmlns:xlink="http://www.w3.org/1999/xlink"
	 x="0px" y="0px" viewBox="0 0 72 72" style="enable-background:new 0 0 72 72;" xml:space="preserve">
<style type="text/css">
	.st0{fill:none;stroke:#000000;stroke-miterlimit:10;}
</style>
<g>
	<polyline class="st0" points="25.3,44.7 19.9,44.7 19.9,30.5 	"/>
	<polyline class="st0" points="38.9,27.3 21.9,27.3 21.9,42.5 25.2,42.5 	"/>
	<polyline class="st0" points="39.8,42.5 53.6,42.5 53.6,27.3 50.7,27.3 	"/>
	<line class="st0" x1="50.7" y1="44.7" x2="43" y2="44.7"/>
	<path class="st0" d="M31.5,38.9c-2.4,0-4.4,1.9-4.4,4.4c0,2.4,1.9,4.4,4.4,4.4c2.4,0,4.4-2,4.4-4.4C35.9,40.8,33.9,38.9,31.5,38.9z
		"/>
	<circle class="st0" cx="44.8" cy="25.1" r="4.4"/>
	<rect x="12" y="11.9" class="st0" width="48" height="48"/>
	<path class="st0" d="M32.9,49.9c0.5,1.9,2.2,3.3,4.2,3.3c2.4,0,4.4-2,4.4-4.4c0-2.1-1.4-3.7-3.3-4.2"/>
</g>
</svg>
