<?xml version="1.0" encoding="utf-8"?>
<!-- Generator: Adobe Illustrator 25.0.1, SVG Export Plug-In . SVG Version: 6.00 Build 0)  -->
<svg version="1.1" id="ip-sectorIndustrials" xmlns="http://www.w3.org/2000/svg" xmlns:xlink="http://www.w3.org/1999/xlink"
	 x="0px" y="0px" viewBox="0 0 72 72" style="enable-background:new 0 0 72 72;" xml:space="preserve">
<style type="text/css">
	.st0{fill:none;stroke:#000000;stroke-miterlimit:10;}
</style>
<g>
	<rect x="12" y="11.9" class="st0" width="48" height="48"/>
	<path class="st0" d="M54,38.5l-4.5,0.9c-0.3,1.3-0.9,2.4-1.5,3.5l2.6,3.8l-3.8,3.7L43.1,48c-1.1,0.7-2.2,1.1-3.4,1.4l-0.8,4.5h-5.4
		l-0.9-4.5c-1.2-0.3-2.4-0.9-3.6-1.6l-3.7,2.6l-3.7-3.7l2.5-3.9c-0.7-1.1-1.1-2.1-1.4-3.4L18,38.5v-5.4l4.4-0.8
		c0.4-1.2,0.8-2.4,1.5-3.4l-2.4-3.8l3.7-3.8l3.7,2.6c1.2-0.7,2.4-1.2,3.6-1.5l0.9-4.5h5.4l0.8,4.5c1.2,0.3,2.4,0.8,3.4,1.5l3.8-2.6
		l3.8,3.8L48,28.8c0.7,1.1,1.2,2.3,1.5,3.6l4.5,0.8V38.5z"/>
	<path class="st0" d="M36.1,30.8c-2.8,0-5.2,2.2-5.2,5.1c0,2.9,2.3,5.2,5.2,5.2c2.8,0,5.1-2.3,5.1-5.2C41.1,33,38.9,30.8,36.1,30.8z
		"/>
</g>
</svg>
