<?xml version="1.0" encoding="utf-8"?>
<!-- Generator: Adobe Illustrator 25.0.1, SVG Export Plug-In . SVG Version: 6.00 Build 0)  -->
<svg version="1.1" id="ip-sectorCommunicationservices"
	 xmlns="http://www.w3.org/2000/svg" xmlns:xlink="http://www.w3.org/1999/xlink" x="0px" y="0px" viewBox="0 0 72 72"
	 style="enable-background:new 0 0 72 72;" xml:space="preserve">
<style type="text/css">
	.st0{fill:none;stroke:#000000;stroke-miterlimit:10;}
</style>
<g>
	<rect x="12" y="12" class="st0" width="48" height="48"/>
	<path class="st0" d="M44.5,20l-0.5-6.3h-2.1l-0.5,5.7H30.1c-1.1,0-1.9,0.4-2.7,1.1c-0.7,0.7-1.1,1.6-1.1,2.7v30
		c0,0.5,0.1,1,0.3,1.5c0.2,0.5,0.5,0.8,0.8,1.2c0.3,0.3,0.7,0.6,1.2,0.8c0.5,0.2,1,0.3,1.5,0.3h10.6c1.1,0,1.9-0.4,2.7-1.1
		c0.7-0.7,1.1-1.6,1.1-2.7V20z M41.2,30.9c-0.2,0.5-0.5,0.8-0.8,1.2c-0.3,0.3-0.7,0.6-1.2,0.8c-0.5,0.2-1,0.3-1.5,0.3h-4.6
		c-0.5,0-1-0.1-1.5-0.3c-0.5-0.2-0.9-0.5-1.2-0.8c-0.3-0.3-0.6-0.7-0.8-1.2c-0.2-0.5-0.3-0.9-0.3-1.5v-3.2c0-1.1,0.4-1.9,1.1-2.7
		c0.7-0.7,1.6-1.1,2.7-1.1h4.6c1.1,0,1.9,0.4,2.7,1.1c0.7,0.7,1.1,1.6,1.1,2.7v3.2C41.4,29.9,41.4,30.4,41.2,30.9z"/>
	<path d="M31.1,38.9c0.2,0.2,0.3,0.4,0.3,0.7c0,0.3-0.1,0.5-0.3,0.7c-0.2,0.2-0.4,0.3-0.7,0.3c-0.3,0-0.5-0.1-0.7-0.3
		c-0.2-0.2-0.3-0.4-0.3-0.7c0-0.3,0.1-0.5,0.3-0.7c0.2-0.2,0.4-0.3,0.7-0.3C30.7,38.6,30.9,38.7,31.1,38.9z"/>
	<path d="M31.1,43.3c0.2,0.2,0.3,0.4,0.3,0.7s-0.1,0.5-0.3,0.7c-0.2,0.2-0.4,0.3-0.7,0.3c-0.3,0-0.5-0.1-0.7-0.3
		c-0.2-0.2-0.3-0.4-0.3-0.7s0.1-0.5,0.3-0.7c0.2-0.2,0.4-0.3,0.7-0.3C30.7,43,30.9,43.1,31.1,43.3z"/>
	<path d="M31.1,47.8c0.2,0.2,0.3,0.4,0.3,0.7c0,0.3-0.1,0.5-0.3,0.7c-0.2,0.2-0.4,0.3-0.7,0.3c-0.3,0-0.5-0.1-0.7-0.3
		c-0.2-0.2-0.3-0.4-0.3-0.7c0-0.3,0.1-0.5,0.3-0.7c0.2-0.2,0.4-0.3,0.7-0.3C30.7,47.5,30.9,47.6,31.1,47.8z"/>
	<path d="M36.2,38.9c0.2,0.2,0.3,0.4,0.3,0.7c0,0.3-0.1,0.5-0.3,0.7c-0.2,0.2-0.4,0.3-0.7,0.3s-0.5-0.1-0.7-0.3
		c-0.2-0.2-0.3-0.4-0.3-0.7c0-0.3,0.1-0.5,0.3-0.7c0.2-0.2,0.4-0.3,0.7-0.3S36,38.7,36.2,38.9z"/>
	<path d="M36.2,43.3c0.2,0.2,0.3,0.4,0.3,0.7s-0.1,0.5-0.3,0.7C36,44.9,35.8,45,35.5,45s-0.5-0.1-0.7-0.3c-0.2-0.2-0.3-0.4-0.3-0.7
		s0.1-0.5,0.3-0.7c0.2-0.2,0.4-0.3,0.7-0.3S36,43.1,36.2,43.3z"/>
	<path d="M36.2,47.8c0.2,0.2,0.3,0.4,0.3,0.7c0,0.3-0.1,0.5-0.3,0.7c-0.2,0.2-0.4,0.3-0.7,0.3s-0.5-0.1-0.7-0.3
		c-0.2-0.2-0.3-0.4-0.3-0.7c0-0.3,0.1-0.5,0.3-0.7c0.2-0.2,0.4-0.3,0.7-0.3S36,47.6,36.2,47.8z"/>
	<path d="M41.2,38.9c0.2,0.2,0.3,0.4,0.3,0.7c0,0.3-0.1,0.5-0.3,0.7c-0.2,0.2-0.4,0.3-0.7,0.3c-0.3,0-0.5-0.1-0.7-0.3
		c-0.2-0.2-0.3-0.4-0.3-0.7c0-0.3,0.1-0.5,0.3-0.7c0.2-0.2,0.4-0.3,0.7-0.3C40.7,38.6,41,38.7,41.2,38.9z"/>
	<path d="M41.2,43.3c0.2,0.2,0.3,0.4,0.3,0.7s-0.1,0.5-0.3,0.7C41,44.9,40.7,45,40.5,45c-0.3,0-0.5-0.1-0.7-0.3
		c-0.2-0.2-0.3-0.4-0.3-0.7s0.1-0.5,0.3-0.7c0.2-0.2,0.4-0.3,0.7-0.3C40.7,43,41,43.1,41.2,43.3z"/>
	<path d="M41.2,47.8c0.2,0.2,0.3,0.4,0.3,0.7c0,0.3-0.1,0.5-0.3,0.7c-0.2,0.2-0.4,0.3-0.7,0.3c-0.3,0-0.5-0.1-0.7-0.3
		c-0.2-0.2-0.3-0.4-0.3-0.7c0-0.3,0.1-0.5,0.3-0.7c0.2-0.2,0.4-0.3,0.7-0.3C40.7,47.5,41,47.6,41.2,47.8z"/>
</g>
</svg>
