<?xml version="1.0" encoding="utf-8"?>
<!-- Generator: Adobe Illustrator 25.0.1, SVG Export Plug-In . SVG Version: 6.00 Build 0)  -->
<svg version="1.1" id="lightbulbIlluminated" xmlns="http://www.w3.org/2000/svg" xmlns:xlink="http://www.w3.org/1999/xlink"
	 x="0px" y="0px" viewBox="0 0 72 72" style="enable-background:new 0 0 72 72;" xml:space="preserve">
<style type="text/css">
	.st0{fill:none;stroke:#000000;stroke-miterlimit:10;}
</style>
<g>
	<line class="st0" x1="36" y1="9.1" x2="36" y2="1"/>
	<line class="st0" x1="17.1" y1="28" x2="9" y2="28"/>
	<line class="st0" x1="63" y1="28" x2="54.9" y2="28"/>
	<line class="st0" x1="22.6" y1="14.6" x2="16.9" y2="8.9"/>
	<line class="st0" x1="55.1" y1="47.1" x2="49.4" y2="41.4"/>
	<line class="st0" x1="49.4" y1="14.6" x2="55.1" y2="8.9"/>
	<line class="st0" x1="16.9" y1="47.1" x2="22.6" y2="41.4"/>
	<path class="st0" d="M46.2,36.6c2.6-2.6,4.2-6.2,4.2-10.2s-1.6-7.6-4.2-10.2C43.6,13.6,40,12,36,12s-7.6,1.6-10.2,4.2
		s-4.2,6.2-4.2,10.2s1.6,7.6,4.2,10.2"/>
	<path class="st0" d="M46.8,36c-2.5,2.5-4,5.9-4,9.6"/>
	<path class="st0" d="M29.2,45.6c0-3.5-1.3-6.9-4-9.6"/>
	<line class="st0" x1="42.8" y1="50.4" x2="29.2" y2="50.4"/>
	<line class="st0" x1="42.8" y1="55.2" x2="29.2" y2="55.2"/>
	<line class="st0" x1="37.7" y1="60" x2="34.3" y2="60"/>
</g>
</svg>
