<?xml version="1.0" encoding="utf-8"?>
<!-- Generator: Adobe Illustrator 25.0.1, SVG Export Plug-In . SVG Version: 6.00 Build 0)  -->
<svg version="1.1" id="ip-bullMarket" xmlns="http://www.w3.org/2000/svg" xmlns:xlink="http://www.w3.org/1999/xlink" x="0px"
	 y="0px" viewBox="0 0 72 72" style="enable-background:new 0 0 72 72;" xml:space="preserve">
<style type="text/css">
	.st0{fill:none;stroke:#000000;stroke-miterlimit:10;}
	.st1{fill:#161616;}
</style>
<g>
	<path class="st0" d="M6,12v2.6C6,23.1,6,30,21.4,30h28.7C65.6,30,66,23.1,66,14.6V12"/>
	<path class="st1" d="M37.6,39c0,0.5,0.4,1,1,1c0.6,0,1-0.4,1-1c0-0.6-0.5-1-1-1C38,38,37.6,38.5,37.6,39z"/>
	<path class="st0" d="M31.7,60c4.3,0,7.7-3.5,7.7-7.7h13.3c3.5,0,7.2-1.7,8.1-3.9c0.9-2.1,1.7-3.9,1.7-3.9L40.7,30"/>
</g>
</svg>
