<?xml version="1.0" encoding="utf-8"?>
<!-- Generator: Adobe Illustrator 25.0.1, SVG Export Plug-In . SVG Version: 6.00 Build 0)  -->
<svg version="1.1" id="newspaper" xmlns="http://www.w3.org/2000/svg" xmlns:xlink="http://www.w3.org/1999/xlink" x="0px" y="0px"
	 viewBox="0 0 72 72" style="enable-background:new 0 0 72 72;" xml:space="preserve">
<style type="text/css">
	.st0{fill:none;stroke:#000000;stroke-miterlimit:10;}
</style>
<g>
	<path class="st0" d="M61.1,57"/>
	<polyline class="st0" points="56.3,53.6 56.3,18 9,18 9,53.6 	"/>
	<line class="st0" x1="14" y1="57" x2="59.4" y2="57"/>
	<line class="st0" x1="63" y1="53.6" x2="63" y2="24.7"/>
	<line class="st0" x1="59.8" y1="53.6" x2="59.8" y2="21.4"/>
	<path class="st0" d="M56.3,53.6c0,1.9,1.5,3.4,3.4,3.4s3.4-1.5,3.4-3.4"/>
	<line class="st0" x1="12.4" y1="57" x2="54" y2="57"/>
	<path class="st0" d="M9,53.6c0,1.9,1.5,3.4,3.4,3.4"/>
	<line class="st0" x1="15" y1="30" x2="49.3" y2="30"/>
	<line class="st0" x1="15" y1="36" x2="42.6" y2="36"/>
	<line class="st0" x1="15" y1="42" x2="49.3" y2="42"/>
	<line class="st0" x1="15" y1="48" x2="42.6" y2="48"/>
</g>
</svg>
