<?xml version="1.0" encoding="utf-8"?>
<!-- Generator: Adobe Illustrator 25.0.1, SVG Export Plug-In . SVG Version: 6.00 Build 0)  -->
<svg version="1.1" id="personHalfPortfolioAllocation"
	 xmlns="http://www.w3.org/2000/svg" xmlns:xlink="http://www.w3.org/1999/xlink" x="0px" y="0px" viewBox="0 0 72 72"
	 style="enable-background:new 0 0 72 72;" xml:space="preserve">
<style type="text/css">
	.st0{fill-rule:evenodd;clip-rule:evenodd;fill:none;stroke:#000000;stroke-miterlimit:10;}
</style>
<g>
	<circle class="st0" cx="21" cy="35.4" r="8"/>
	<path class="st0" d="M36,62.7v-8.6c0-3.6-2.9-6.4-6.4-6.4H12.4c-3.6,0-6.4,2.9-6.4,6.4v8.6"/>
	<polyline class="st0" points="38.2,48 66,48 66,19.2 22.8,19.2 22.8,24 	"/>
	<path class="st0" d="M51.6,16.8v-2.4c0-1.3-1.1-2.4-2.4-2.4h-9.6c-1.3,0-2.4,1.1-2.4,2.4v2.4"/>
	<circle class="st0" cx="44.4" cy="33.6" r="10.2"/>
	<circle class="st0" cx="44.4" cy="33.6" r="3.8"/>
	<line class="st0" x1="44.4" y1="23.4" x2="44.4" y2="29.8"/>
	<line class="st0" x1="54.6" y1="33.6" x2="48.2" y2="33.6"/>
	<line class="st0" x1="51.6" y1="26.4" x2="47.1" y2="30.9"/>
	<line class="st0" x1="44.4" y1="37.4" x2="44.4" y2="43.8"/>
</g>
</svg>
