<?xml version="1.0" encoding="utf-8"?>
<!-- Generator: Adobe Illustrator 25.0.1, SVG Export Plug-In . SVG Version: 6.00 Build 0)  -->
<svg version="1.1" id="piggybank" xmlns="http://www.w3.org/2000/svg" xmlns:xlink="http://www.w3.org/1999/xlink" x="0px" y="0px"
	 viewBox="0 0 72 72" style="enable-background:new 0 0 72 72;" xml:space="preserve">
<style type="text/css">
	.st0{fill:#231F20;}
	.st1{fill:none;stroke:#000000;stroke-miterlimit:10;}
</style>
<g>
	<path class="st0" d="M23.7,29.8c-0.7-0.7-1.7-0.7-2.4,0c-0.7,0.7-0.7,1.7,0,2.4c0.7,0.7,1.7,0.7,2.4,0
		C24.4,31.5,24.4,30.4,23.7,29.8z"/>
	<path class="st1" d="M24.2,15.6C27.4,13.9,31.1,13,35,13h4.6C52.5,13,62.9,23.3,62.9,36c0,8.4-4.5,15.8-11.3,19.8V63h-7v-4.4
		c-1.6,0.3-3.2,0.5-4.9,0.5H35c-1.5,0-2.9-0.1-4.4-0.4V63h-7v-6.8c-4-2.2-7.3-5.6-9.4-9.8H9.1V32.6h5.2V12.4l12.5,6.9 M61.4,28.6
		c2.6,0,4.6-2.1,4.6-4.6 M32.8,17h11.1"/>
</g>
</svg>
