<?xml version="1.0" encoding="utf-8"?>
<!-- Generator: Adobe Illustrator 25.0.1, SVG Export Plug-In . SVG Version: 6.00 Build 0)  -->
<svg version="1.1" id="pin" xmlns="http://www.w3.org/2000/svg" xmlns:xlink="http://www.w3.org/1999/xlink" x="0px" y="0px"
	 viewBox="0 0 72 72" style="enable-background:new 0 0 72 72;" xml:space="preserve">
<style type="text/css">
	.st0{fill:none;stroke:#000000;stroke-miterlimit:10;}
</style>
<g>
	<circle class="st0" cx="36" cy="29.1" r="6.2"/>
	<path class="st0" d="M20.2,38.8L36,60l15.8-21.2c0.7-1,1.3-2.1,1.8-3.2c0.5-1.1,0.9-2.3,1.1-3.6s0.4-2.5,0.4-3.9
		c0-1.3-0.1-2.6-0.4-3.9s-0.6-2.4-1.1-3.6c-0.5-1.1-1.1-2.2-1.8-3.2s-1.5-2-2.3-2.8c-0.9-0.9-1.8-1.6-2.8-2.3
		c-1-0.7-2.1-1.3-3.2-1.8c-1.1-0.5-2.3-0.9-3.6-1.1S37.3,9,36,9s-2.6,0.1-3.9,0.4c-1.2,0.3-2.4,0.6-3.6,1.1
		c-1.1,0.5-2.2,1.1-3.2,1.8c-1,0.7-2,1.5-2.8,2.3s-1.6,1.8-2.3,2.8c-0.7,1-1.3,2.1-1.8,3.2c-0.5,1.1-0.9,2.3-1.1,3.6
		s-0.4,2.5-0.4,3.9c0,1.3,0.1,2.6,0.4,3.9s0.6,2.4,1.1,3.6C18.9,36.7,19.5,37.8,20.2,38.8z"/>
</g>
</svg>
