<?xml version="1.0" encoding="utf-8"?>
<!-- Generator: Adobe Illustrator 25.0.1, SVG Export Plug-In . SVG Version: 6.00 Build 0)  -->
<svg version="1.1" id="portfolioIP" xmlns="http://www.w3.org/2000/svg" xmlns:xlink="http://www.w3.org/1999/xlink" x="0px"
	 y="0px" viewBox="0 0 72 72" style="enable-background:new 0 0 72 72;" xml:space="preserve">
<style type="text/css">
	.st0{fill:none;stroke:#000000;}
</style>
<g>
	<rect x="9" y="21" class="st0" width="54" height="36"/>
	<path class="st0" d="M45,18v-3c0-1.7-1.3-3-3-3H30c-1.7,0-3,1.3-3,3v3"/>
	<path class="st0" d="M18.1,46.2"/>
	<path class="st0" d="M32.5,46.2"/>
	<line class="st0" x1="22.8" y1="46.3" x2="22.8" y2="31.8"/>
	<line class="st0" x1="27.7" y1="46.3" x2="27.7" y2="31.8"/>
	<line class="st0" x1="18" y1="36.6" x2="32.5" y2="36.6"/>
	<line class="st0" x1="18" y1="41.4" x2="32.5" y2="41.4"/>
	<rect x="18" y="31.8" class="st0" width="14.5" height="14.5"/>
	<polygon class="st0" points="46.4,30.9 44.7,36.3 39,36.3 43.6,39.7 41.8,45.1 46.4,41.7 51,45.1 49.3,39.6 53.9,36.3 48.2,36.3 	
		"/>
</g>
</svg>
