<?xml version="1.0" encoding="utf-8"?>
<!-- Generator: Adobe Illustrator 25.0.1, SVG Export Plug-In . SVG Version: 6.00 Build 0)  -->
<svg version="1.1" id="sunrise" xmlns="http://www.w3.org/2000/svg" xmlns:xlink="http://www.w3.org/1999/xlink" x="0px" y="0px"
	 viewBox="0 0 72 72" style="enable-background:new 0 0 72 72;" xml:space="preserve">
<style type="text/css">
	.st0{fill:none;stroke:#000000;stroke-miterlimit:10;}
</style>
<g>
	<line class="st0" x1="36" y1="15" x2="36" y2="6"/>
	<line class="st0" x1="15" y1="36" x2="6" y2="36"/>
	<line class="st0" x1="66" y1="36" x2="57" y2="36"/>
	<line class="st0" x1="21.2" y1="21.2" x2="14.8" y2="14.8"/>
	<line class="st0" x1="50.8" y1="21.2" x2="57.2" y2="14.8"/>
	<path class="st0" d="M48.1,44.5c1.8-2.5,2.9-5.5,2.9-8.8C51,27.6,44.3,21,36,21c-8.3,0-15,6.6-15,14.7c0,3.3,1.1,6.3,2.9,8.8"/>
	<line class="st0" x1="56" y1="49.3" x2="16" y2="49.3"/>
	<line class="st0" x1="42.7" y1="56" x2="29.3" y2="56"/>
	<line class="st0" x1="49.4" y1="52.7" x2="22.6" y2="52.7"/>
</g>
</svg>
