<?xml version="1.0" encoding="utf-8"?>
<!-- Generator: Adobe Illustrator 25.0.1, SVG Export Plug-In . SVG Version: 6.00 Build 0)  -->
<svg version="1.1" id="water" xmlns="http://www.w3.org/2000/svg" xmlns:xlink="http://www.w3.org/1999/xlink" x="0px" y="0px"
	 viewBox="0 0 72 72" style="enable-background:new 0 0 72 72;" xml:space="preserve">
<style type="text/css">
	.st0{fill:none;stroke:#000000;}
</style>
<g>
	<g>
		<path class="st0" d="M12,21c3.4,0,3.4,3,6.9,3c3.4,0,3.4-3,6.9-3c3.4,0,3.4,3,6.9,3c3.4,0,3.4-3,6.9-3c3.4,0,3.4,3,6.9,3
			c3.4,0,3.4-3,6.9-3c3.4,0,3.4,3,6.9,3"/>
	</g>
	<g>
		<path class="st0" d="M12,30c3.4,0,3.4,3,6.9,3c3.4,0,3.4-3,6.9-3c3.4,0,3.4,3,6.9,3c3.4,0,3.4-3,6.9-3c3.4,0,3.4,3,6.9,3
			c3.4,0,3.4-3,6.9-3c3.4,0,3.4,3,6.9,3"/>
	</g>
	<g>
		<path class="st0" d="M12,39c3.4,0,3.4,3,6.9,3c3.4,0,3.4-3,6.9-3c3.4,0,3.4,3,6.9,3c3.4,0,3.4-3,6.9-3c3.4,0,3.4,3,6.9,3
			c3.4,0,3.4-3,6.9-3c3.4,0,3.4,3,6.9,3"/>
	</g>
	<g>
		<path class="st0" d="M12,48c3.4,0,3.4,3,6.9,3c3.4,0,3.4-3,6.9-3c3.4,0,3.4,3,6.9,3c3.4,0,3.4-3,6.9-3c3.4,0,3.4,3,6.9,3
			c3.4,0,3.4-3,6.9-3c3.4,0,3.4,3,6.9,3"/>
	</g>
</g>
</svg>
