<?xml version="1.0" encoding="utf-8"?>
<!-- Generator: Adobe Illustrator 25.0.1, SVG Export Plug-In . SVG Version: 6.00 Build 0)  -->
<svg version="1.1" id="wifisignal" xmlns="http://www.w3.org/2000/svg" xmlns:xlink="http://www.w3.org/1999/xlink" x="0px" y="0px"
	 viewBox="0 0 72 72" style="enable-background:new 0 0 72 72;" xml:space="preserve">
<style type="text/css">
	.st0{fill:none;stroke:#000000;stroke-miterlimit:10;}
</style>
<g>
	<path class="st0" d="M62.9,26.2c-7.2-7-16.7-10.8-26.9-10.8S16.3,19.2,9.1,26.2"/>
	<path class="st0" d="M54.9,33.9C49.9,29,43.2,26.3,36,26.3c-7.2,0-13.9,2.7-18.9,7.6"/>
	<path class="st0" d="M47,41.7c-2.9-2.8-6.8-4.4-11-4.4c-4.1,0-8,1.6-11,4.4"/>
	<path class="st0" d="M36,48c2.4,0,4.4,1.9,4.4,4.3c0,2.4-2,4.3-4.4,4.3c-2.4,0-4.4-1.9-4.4-4.3C31.6,49.9,33.6,48,36,48z"/>
</g>
</svg>
