<?xml version="1.0" encoding="utf-8"?>
<!-- Generator: Adobe Illustrator 25.0.1, SVG Export Plug-In . SVG Version: 6.00 Build 0)  -->
<svg version="1.1" id="airplane" xmlns="http://www.w3.org/2000/svg" xmlns:xlink="http://www.w3.org/1999/xlink" x="0px" y="0px"
	 viewBox="0 0 72 72" style="enable-background:new 0 0 72 72;" xml:space="preserve">
<style type="text/css">
	.st0{fill:none;stroke:#221F1F;stroke-miterlimit:10;}
</style>
<g>
	<path class="st0" d="M19.8,47.5L10.6,45l1.7-1.7l11.4,0.4c0.3,0,0.5-0.1,0.7-0.3l9.3-9.8c0.2-0.2,0.3-0.5,0.2-0.8
		c-0.1-0.3-0.3-0.5-0.6-0.7l-20.7-8.3l3.6-3.6l25.4,4.4c0.3,0,0.6-0.1,0.8-0.3l10-10.5c1.1-1.1,2.9-1.8,4.6-1.8
		c0.7,0,1.6,0.1,2.3,0.8c1.4,1.4,0.6,5-1.1,6.7L47.6,29.6c-0.2,0.2-0.3,0.5-0.3,0.8l4.3,25.1L48,59.2l-8.2-20.4
		c-0.1-0.3-0.4-0.5-0.7-0.6c-0.3-0.1-0.6,0-0.8,0.2l-9.8,9.3c0,0-0.1,0-0.1,0.1c-0.2,0.2-0.3,0.4-0.3,0.7l0.4,11.1l-1.7,1.7
		l-2.6-9.2"/>
	<line class="st0" x1="25.3" y1="46.5" x2="19.6" y2="52.3"/>
</g>
</svg>
